<?xml version="1.0" standalone="no"?>
<!DOCTYPE svg PUBLIC "-//W3C//DTD SVG 20010904//EN"
 "http://www.w3.org/TR/2001/REC-SVG-20010904/DTD/svg10.dtd">
<svg version="1.0" xmlns="http://www.w3.org/2000/svg"
 width="1143.000000pt" height="1138.000000pt" viewBox="0 0 1143.000000 1138.000000"
 preserveAspectRatio="xMidYMid meet">

<g transform="translate(0.000000,1138.000000) scale(0.100000,-0.100000)"
fill="#000000" stroke="none">
<path d="M5392 11359 c-367 -20 -746 -78 -1102 -168 -85 -22 -165 -43 -178
-48 -21 -8 -6 -22 160 -148 258 -196 508 -391 760 -592 l218 -174 90 36 c172
69 265 87 445 89 170 1 255 -12 392 -58 l67 -22 185 164 c103 90 331 289 509
441 l322 276 -82 23 c-532 145 -1200 213 -1786 181z"/>
<path d="M8230 10603 c-504 -425 -639 -540 -905 -773 -165 -144 -319 -280
-343 -302 l-43 -39 18 -77 c27 -117 24 -365 -6 -492 -13 -52 -24 -102 -25
-110 0 -9 87 -96 194 -194 107 -99 229 -211 270 -250 41 -39 116 -109 165
-155 50 -47 223 -212 385 -369 l296 -283 424 -247 425 -246 120 -7 c74 -5 158
-18 219 -34 l99 -26 26 24 c137 126 770 670 1066 917 121 101 226 189 233 195
34 31 -287 583 -526 905 -415 559 -898 1016 -1473 1393 -171 112 -457 277
-479 276 -8 0 -71 -48 -140 -106z"/>
<path d="M2927 10648 c-15 -12 3 -25 158 -115 96 -56 175 -100 175 -98 0 5
-291 216 -304 221 -7 3 -19 -1 -29 -8z"/>
<path d="M11094 6973 c-438 -372 -735 -636 -726 -644 4 -4 228 -134 497 -289
270 -155 505 -291 522 -302 l33 -20 -5 124 c-15 336 -43 609 -91 867 -34 184
-74 364 -84 374 -4 5 -70 -45 -146 -110z"/>
<path d="M5020 6190 l0 -750 -180 0 -180 0 0 -226 0 -225 298 3 c279 3 300 4
343 24 95 44 154 121 188 244 13 46 15 182 18 868 l4 812 -246 0 -245 0 0
-750z"/>
<path d="M5866 6923 c-113 -34 -181 -113 -216 -248 -18 -72 -20 -111 -20 -507
l0 -428 360 0 360 0 0 -150 0 -150 -120 0 -120 0 0 75 0 75 -240 0 -240 0 0
-300 0 -301 478 3 477 3 53 24 c103 46 171 153 192 299 5 37 10 248 10 470 l0
402 -360 0 -360 0 0 150 0 150 115 0 115 0 0 -75 0 -75 245 0 245 0 0 300 0
300 -462 -1 c-384 0 -471 -3 -512 -16z"/>
<path d="M4060 6190 l-241 -301 237 -295 c130 -162 240 -297 243 -299 7 -4
228 265 237 288 3 8 -44 74 -111 156 -63 79 -115 146 -115 149 0 4 52 72 115
151 63 79 115 147 115 151 0 5 -204 265 -235 298 -2 2 -112 -132 -245 -298z"/>
<path d="M7076 6339 c-82 -104 -115 -153 -109 -162 5 -6 58 -71 116 -144 59
-72 107 -136 107 -142 0 -7 -52 -77 -116 -156 l-116 -145 119 -149 c65 -83
121 -149 125 -148 10 3 478 586 478 596 0 10 -467 595 -478 598 -4 1 -60 -65
-126 -148z"/>
<path d="M2825 4490 c-38 -16 -110 -39 -160 -52 -80 -20 -111 -23 -285 -21
-107 1 -213 3 -235 5 l-39 3 -174 -220 c-495 -629 -1098 -1450 -1089 -1484 6
-24 173 -273 276 -411 516 -692 1200 -1271 1971 -1669 198 -102 431 -205 440
-194 4 4 106 141 226 303 247 332 522 687 787 1018 138 172 178 229 174 245
-3 12 -15 58 -28 102 -20 70 -23 104 -23 270 -1 193 7 257 48 372 l15 42 -297
293 c-585 576 -1496 1429 -1526 1427 -6 0 -42 -13 -81 -29z"/>
</g>
</svg>
